<svg xmlns="http://www.w3.org/2000/svg" version="1.1" xmlns:xlink="http://www.w3.org/1999/xlink" xmlns:svgjs="http://svgjs.dev/svgjs" width="2000" height="792" viewBox="0 0 2000 792"><g transform="matrix(1,0,0,1,-1.2121212121212466,0.3608037939238784)"><svg viewBox="0 0 396 157" data-background-color="#ffffff" preserveAspectRatio="xMidYMid meet" height="792" width="2000" xmlns="http://www.w3.org/2000/svg" xmlns:xlink="http://www.w3.org/1999/xlink"><g id="tight-bounds" transform="matrix(1,0,0,1,0.2400000000000091,-0.07152275865371394)"><svg viewBox="0 0 395.52 157.1430457329543" height="157.1430457329543" width="395.52"><g><svg viewBox="0 0 397.4975999999999 157.92876096161905" height="157.1430457329543" width="395.52"><g><rect width="397.4975999999999" height="4.5176664355955" x="0" y="81.05837195833627" fill="#113f67" opacity="1" stroke-width="0" stroke="transparent" fill-opacity="1" class="rect-o-0" data-fill-palette-color="primary" rx="1%" id="o-0" data-palette-color="#113f67"></rect></g><g><rect width="397.4975999999999" height="4.5176664355955" x="0" y="91.4892143567531" fill="#113f67" opacity="1" stroke-width="0" stroke="transparent" fill-opacity="1" class="rect-o-1" data-fill-palette-color="primary" rx="1%" id="o-1" data-palette-color="#113f67"></rect></g><g transform="matrix(1,0,0,1,0.9887999999999693,107.83323271799127)"><svg viewBox="0 0 395.52 50.095528243627776" height="50.095528243627776" width="395.52"><g id="textblocktransform"><svg viewBox="0 0 395.52 50.095528243627776" height="50.095528243627776" width="395.52" id="textblock"><g><svg viewBox="0 0 395.52 50.095528243627776" height="50.095528243627776" width="395.52"><g transform="matrix(1,0,0,1,0,0)"><svg width="395.52" viewBox="0.9800000190734863 -35.45000076293945 403.2200012207031 51.08000183105469" height="50.095528243627776" data-palette-color="#113f67"><path d="M19.24 0L2.44 0Q2.25 0 2.25-0.24L2.25-0.24 2.25-1.27Q2.25-1.29 2.27-1.38 2.29-1.46 2.44-1.46L2.44-1.46Q3.27-1.46 3.99-1.71 4.71-1.95 5.25-2.37 5.79-2.78 6.1-3.37 6.42-3.96 6.42-4.64L6.42-4.64 6.42-29.44Q6.42-30.66 6.18-31.36 5.93-32.06 5.46-32.41 4.98-32.76 4.26-32.85 3.54-32.93 2.59-32.93L2.59-32.93 1.49-32.93Q1.22-32.93 1.1-33.24 0.98-33.54 0.98-33.76L0.98-33.76Q0.98-33.89 1.03-34.13 1.07-34.38 1.29-34.42L1.29-34.42Q1.32-34.42 1.45-34.42 1.59-34.42 1.93-34.44 2.27-34.45 2.84-34.46 3.42-34.47 4.35-34.5L4.35-34.5Q5.69-34.52 7.21-34.57 8.74-34.62 10.3-34.67 11.87-34.72 13.39-34.75 14.92-34.79 16.26-34.79L16.26-34.79 19.7-34.79Q21.66-34.79 23.51-34.13 25.37-33.47 26.81-32.19 28.25-30.91 29.13-29 30-27.1 30-24.61L30-24.61Q30-23.05 29.54-21.62 29.08-20.19 28.28-18.99 27.49-17.8 26.45-16.83 25.42-15.87 24.28-15.21 23.14-14.55 21.97-14.21L21.97-14.21Q20.95-13.94 20.04-13.94L20.04-13.94Q19.9-13.94 19.78-13.94L19.78-13.94 13.94-14.23Q13.92-14.23 13.75-14.23 13.57-14.23 13.5-14.18L13.5-14.18Q13.43-14.14 13.4-14.09 13.38-14.04 13.38-13.89L13.38-13.89 13.38-4.71Q13.38-3.76 13.9-3.14 14.43-2.51 15.27-2.15 16.11-1.78 17.16-1.62 18.21-1.46 19.24-1.46L19.24-1.46Q19.38-1.46 19.41-1.39 19.43-1.32 19.43-1.27L19.43-1.27 19.43-0.2Q19.43-0.15 19.4-0.07 19.36 0 19.24 0L19.24 0ZM13.38-17.72L13.43-16.99Q13.45-16.8 13.54-16.64 13.62-16.48 13.89-16.46L13.89-16.46Q13.99-16.46 14.25-16.43 14.5-16.41 14.84-16.38 15.19-16.36 15.59-16.33 15.99-16.31 16.38-16.31L16.38-16.31Q18.02-16.31 19.25-16.97 20.48-17.63 21.3-18.81 22.12-20 22.52-21.62 22.92-23.24 22.92-25.2L22.92-25.2Q22.92-29.22 21.31-31.1 19.7-32.98 16.58-32.98L16.58-32.98Q16.24-32.98 15.94-32.97 15.65-32.96 15.36-32.95 15.06-32.93 14.73-32.92 14.4-32.91 13.99-32.89L13.99-32.89Q13.84-32.89 13.61-32.82 13.38-32.76 13.38-32.5L13.38-32.5 13.38-17.72ZM32.83-0.98L32.83-1.27Q32.83-1.29 32.86-1.38 32.88-1.46 33.03-1.46L33.03-1.46Q33.18-1.46 33.49-1.51 33.81-1.56 34.15-1.61 34.49-1.66 34.79-1.72 35.08-1.78 35.2-1.81L35.2-1.81Q36.59-2.12 37.14-2.84 37.69-3.56 37.69-4.64L37.69-4.64 37.69-29.44Q37.69-30.66 37.18-31.37 36.67-32.08 36-32.43 35.32-32.79 34.7-32.87 34.08-32.96 33.86-32.96L33.86-32.96 32.93-32.96Q32.81-32.96 32.77-33.03 32.74-33.11 32.74-33.15L32.74-33.15 32.74-34.23Q32.74-34.28 32.76-34.34 32.79-34.4 32.93-34.42L32.93-34.42Q32.96-34.42 33.04-34.42 33.13-34.42 33.4-34.44 33.66-34.45 34.18-34.46 34.69-34.47 35.62-34.5L35.62-34.5Q36.96-34.52 38.49-34.57 40.01-34.62 41.57-34.67 43.14-34.72 44.66-34.75 46.19-34.79 47.53-34.79L47.53-34.79 50-34.79Q51.93-34.79 53.93-34.13 55.93-33.47 57.55-32.19 59.18-30.91 60.21-29 61.25-27.1 61.25-24.61L61.25-24.61Q61.25-23 60.81-21.74 60.37-20.48 59.6-19.52 58.84-18.55 57.77-17.82 56.71-17.09 55.47-16.53L55.47-16.53 62.86-4.81Q63.82-3.3 65.09-2.06 66.35-0.83 68.04-0.34L68.04-0.34Q68.23-0.29 68.27-0.21 68.31-0.12 68.31 0L68.31 0Q68.31 0.37 68.11 0.49 67.92 0.61 67.5 0.61L67.5 0.61Q66.48 0.61 65.17 0.48 63.86 0.34 62.55 0.04 61.23-0.27 60.04-0.76 58.86-1.25 58.05-1.98L58.05-1.98Q57.27-2.66 56.47-3.71 55.66-4.76 54.84-5.97 54.03-7.18 53.23-8.48 52.44-9.79 51.69-11.04 50.95-12.28 50.27-13.35 49.58-14.43 49.02-15.19L49.02-15.19 45.21-15.45Q45.19-15.45 45.02-15.45 44.85-15.45 44.77-15.41L44.77-15.41Q44.7-15.36 44.68-15.31 44.65-15.26 44.65-15.11L44.65-15.11 44.65-4.71Q44.65-4.05 44.82-3.56 44.99-3.08 45.4-2.72 45.8-2.37 46.45-2.15 47.09-1.93 48.02-1.81L48.02-1.81Q48.17-1.78 48.45-1.73 48.73-1.68 49.06-1.62 49.39-1.56 49.7-1.51 50.02-1.46 50.24-1.46L50.24-1.46Q50.39-1.46 50.41-1.39 50.44-1.32 50.44-1.27L50.44-1.27 50.44-0.2Q50.44-0.15 50.4-0.07 50.36 0 50.24 0L50.24 0 33.03 0Q32.91 0 32.87-0.34 32.83-0.68 32.83-0.98L32.83-0.98ZM44.65-18.63L44.7-17.9Q44.72-17.7 44.81-17.54 44.89-17.38 45.16-17.36L45.16-17.36Q45.38-17.33 45.82-17.27 46.26-17.21 47.04-17.21L47.04-17.21Q49.19-17.21 50.58-17.87 51.98-18.53 52.78-19.64 53.59-20.75 53.89-22.19 54.2-23.63 54.2-25.2L54.2-25.2Q54.2-26.83 53.68-28.3 53.17-29.76 52.26-30.83 51.34-31.91 50.06-32.54 48.78-33.18 47.24-33.18L47.24-33.18Q46.9-33.18 46.7-33.17 46.51-33.15 46.32-33.14 46.14-33.13 45.91-33.12 45.68-33.11 45.26-33.08L45.26-33.08Q45.11-33.08 44.88-33.02 44.65-32.96 44.65-32.69L44.65-32.69 44.65-18.63ZM87.2 0.63L87.2 0.63Q86.35 0.63 85.07 0.49 83.78 0.34 82.26-0.05 80.73-0.44 79.07-1.07 77.41-1.71 75.81-2.7 74.21-3.69 72.77-5.04 71.33-6.4 70.25-8.19 69.16-9.99 68.51-12.28 67.87-14.58 67.87-17.43L67.87-17.43Q67.87-19.97 68.56-22.29 69.26-24.61 70.55-26.61 71.85-28.61 73.69-30.25 75.53-31.88 77.8-33.03 80.07-34.18 82.73-34.81 85.4-35.45 88.33-35.45L88.33-35.45Q90.86-35.45 93.24-34.83 95.62-34.2 97.7-33.07 99.78-31.93 101.5-30.35 103.22-28.76 104.46-26.81 105.71-24.85 106.39-22.6 107.08-20.34 107.08-17.9L107.08-17.9Q107.08-15.6 106.42-13.34 105.76-11.08 104.51-9.02 103.27-6.96 101.5-5.2 99.73-3.44 97.53-2.14 95.33-0.83 92.72-0.1 90.11 0.63 87.2 0.63ZM75.04-18.33L75.04-18.33Q75.04-16.36 75.45-14.38 75.85-12.4 76.63-10.57 77.41-8.74 78.56-7.14 79.71-5.54 81.17-4.36 82.64-3.17 84.43-2.5 86.23-1.83 88.33-1.83L88.33-1.83Q91.28-1.83 93.45-3.09 95.62-4.35 97.05-6.42 98.48-8.5 99.18-11.19 99.87-13.89 99.87-16.77L99.87-16.77Q99.87-18.87 99.47-20.89 99.07-22.9 98.3-24.72 97.53-26.54 96.39-28.06 95.26-29.59 93.78-30.71 92.3-31.84 90.51-32.46 88.72-33.08 86.62-33.08L86.62-33.08Q84.74-33.08 83.15-32.5 81.56-31.91 80.28-30.9 79-29.88 78.02-28.48 77.05-27.08 76.39-25.44 75.73-23.8 75.39-21.98 75.04-20.17 75.04-18.33ZM115.76-30.15L115.76-30.15Q115.76-31.08 115.43-31.65 115.1-32.23 114.49-32.54 113.88-32.86 113.01-32.97 112.13-33.08 111.03-33.08L111.03-33.08Q110.83-33.08 110.83-33.28L110.83-33.28 110.83-34.23Q110.83-34.42 111.03-34.42L111.03-34.42 126.48-34.42Q126.6-34.42 126.64-34.35 126.68-34.28 126.68-34.23L126.68-34.23 126.68-33.28Q126.68-33.23 126.64-33.15 126.6-33.08 126.48-33.08L126.48-33.08Q125.72-33.08 125.04-32.97 124.36-32.86 123.85-32.5 123.33-32.13 123.03-31.45 122.72-30.76 122.72-29.59L122.72-29.59 122.72 0.24Q122.72 2.05 122.37 3.89 122.01 5.74 121.29 7.45 120.57 9.16 119.47 10.64 118.38 12.13 116.91 13.24 115.45 14.36 113.6 14.99 111.76 15.63 109.51 15.63L109.51 15.63Q106.46 15.63 105.07 14.9 103.68 14.18 103.65 13.06L103.65 13.06Q103.65 12.55 103.89 12.1 104.12 11.65 104.47 11.3 104.83 10.96 105.27 10.77 105.71 10.57 106.14 10.57L106.14 10.57Q106.88 10.57 107.41 10.74 107.95 10.91 108.35 11.17 108.76 11.43 109.06 11.73 109.37 12.04 109.7 12.29 110.03 12.55 110.38 12.72 110.73 12.89 111.25 12.89L111.25 12.89Q112.35 12.89 113.12 12.45 113.88 12.01 114.38 11.24 114.89 10.47 115.17 9.45 115.45 8.42 115.58 7.26 115.72 6.1 115.74 4.87 115.76 3.64 115.76 2.44L115.76 2.44 115.76-30.15ZM129.04-0.54L129.04-1.25Q129.04-1.27 129.07-1.35 129.09-1.44 129.24-1.44L129.24-1.44 129.78-1.44Q130.8-1.51 131.87-1.53 132.95-1.54 133.83-1.79 134.71-2.05 135.27-2.7 135.83-3.34 135.83-4.71L135.83-4.71 135.83-29.71Q135.83-30.66 135.44-31.26 135.05-31.86 134.41-32.23 133.78-32.59 132.97-32.78 132.17-32.96 131.34-33.08L131.34-33.08 130.82-33.08Q130.7-33.08 130.67-33.15 130.63-33.23 130.63-33.28L130.63-33.28 130.63-34.23Q130.63-34.28 130.67-34.35 130.7-34.42 130.82-34.42L130.82-34.42 155.14-34.42Q155.58-34.42 155.78-34.27 155.97-34.11 156.02-33.57L156.02-33.57 156.46-25.76Q156.46-25.63 156.25-25.57 156.04-25.51 155.87-25.51L155.87-25.51Q155.68-25.51 155.48-25.56 155.29-25.61 155.21-25.71L155.21-25.71Q155.04-25.95 154.97-26.43 154.9-26.9 154.81-27.49 154.73-28.08 154.57-28.71 154.41-29.35 154.09-29.88 153.77-30.42 153.22-30.82 152.68-31.23 151.82-31.37L151.82-31.37 143.11-31.37Q142.79-31.37 142.79-31.05L142.79-31.05 142.79-19.41Q142.79-19.17 143.03-19.17L143.03-19.17 150.01-19.17Q150.62-19.17 151.22-19.32 151.82-19.48 152.27-19.9 152.72-20.31 153.01-21.06 153.29-21.8 153.29-22.97L153.29-22.97Q153.29-23.17 153.48-23.17L153.48-23.17 154.43-23.17Q154.63-23.17 154.63-22.97L154.63-22.97 154.63-11.79Q154.63-11.67 154.56-11.63 154.48-11.6 154.43-11.6L154.43-11.6 153.48-11.6Q153.36-11.6 153.32-11.67 153.29-11.74 153.29-11.79L153.29-11.79Q153.29-13.16 153.01-14 152.72-14.84 152.26-15.32 151.8-15.8 151.2-15.95 150.6-16.11 149.94-16.11L149.94-16.11 143.03-16.11Q142.79-16.11 142.79-15.87L142.79-15.87 142.79-5.2Q142.79-4.49 143.01-4.06 143.23-3.64 143.61-3.42 143.98-3.2 144.47-3.13 144.96-3.05 145.5-3.05L145.5-3.05 152.16-3.05Q153.58-3.05 154.53-3.7 155.48-4.35 156.07-5.27 156.66-6.2 156.94-7.2 157.22-8.2 157.29-8.91L157.29-8.91Q157.34-9.23 157.61-9.41 157.88-9.59 158.22-9.59L158.22-9.59Q158.34-9.59 158.51-9.5 158.68-9.4 158.68-9.28L158.68-9.28 157.88-0.34Q157.83-0.22 157.74-0.11 157.66 0 157.53 0L157.53 0 129.24 0Q129.09 0 129.07-0.09 129.04-0.17 129.04-0.2L129.04-0.2 129.04-0.54ZM163.39-16.99L163.39-16.99Q163.39-19.73 164.07-22.16 164.76-24.58 166-26.64 167.25-28.69 169.01-30.32 170.76-31.96 172.9-33.09 175.04-34.23 177.48-34.84 179.92-35.45 182.58-35.45L182.58-35.45Q184.83-35.45 186.91-35.05 189-34.64 191.22-34.11L191.22-34.11Q191.59-34.01 191.99-33.86 192.39-33.72 192.75-33.58 193.1-33.45 193.4-33.35 193.69-33.25 193.84-33.25L193.84-33.25Q193.88-33.25 194.16-33.35 194.45-33.45 194.57-33.45L194.57-33.45 195.69-33.45Q195.98-33.45 195.98-33.03L195.98-33.03 195.98-25.07Q195.98-24.93 195.87-24.88 195.76-24.83 195.4-24.83L195.4-24.83Q195.32-24.83 195.02-24.84 194.71-24.85 194.64-24.98L194.64-24.98Q194.59-25.05 194.46-25.27 194.32-25.49 194.16-25.72 194.01-25.95 193.87-26.16 193.74-26.37 193.71-26.44L193.71-26.44Q192.79-28.27 191.69-29.53 190.59-30.79 189.26-31.57 187.93-32.35 186.36-32.7 184.8-33.06 182.97-33.06L182.97-33.06Q180.65-33.06 178.86-32.52 177.06-31.98 175.72-31.01 174.38-30.03 173.46-28.66 172.55-27.29 171.97-25.67 171.4-24.05 171.14-22.2 170.89-20.36 170.89-18.41L170.89-18.41Q170.89-16.33 171.18-14.29 171.47-12.26 172.13-10.41 172.79-8.57 173.83-6.99 174.87-5.42 176.33-4.26 177.8-3.1 179.75-2.44 181.7-1.78 184.17-1.78L184.17-1.78Q186.24-1.78 188.04-2.4 189.83-3.03 191.32-4.09 192.81-5.15 193.97-6.53 195.13-7.91 195.96-9.42L195.96-9.42Q196.01-9.55 196.07-9.56 196.13-9.57 196.25-9.57L196.25-9.57 197.5-9.57Q197.57-9.57 197.66-9.51 197.74-9.45 197.74-9.25L197.74-9.25Q197.74-9.18 197.63-8.87 197.52-8.57 197.4-8.35L197.4-8.35 194.03-0.93Q193.98-0.85 193.88-0.81 193.79-0.76 193.71-0.76L193.71-0.76Q193.13-0.76 192.9-0.85 192.66-0.95 192.42-0.95L192.42-0.95Q191.69-0.95 190.48-0.7 189.27-0.44 187.87-0.15 186.46 0.15 185.03 0.4 183.61 0.66 182.48 0.66L182.48 0.66Q179.92 0.66 177.5 0.1 175.09-0.46 172.96-1.53 170.84-2.59 169.08-4.14 167.32-5.69 166.05-7.64 164.78-9.59 164.09-11.95 163.39-14.31 163.39-16.99ZM214.46-30.69L214.46-30.69Q214.46-31.2 214.26-31.26 214.05-31.32 213.75-31.37L213.75-31.37 205.48-31.37Q204.57-31.18 204.06-30.65 203.55-30.13 203.26-29.42 202.96-28.71 202.82-27.89 202.67-27.08 202.5-26.32L202.5-26.32Q202.45-26.1 202.4-25.79 202.35-25.49 202.3-25.44L202.3-25.44Q202.26-25.37 202.13-25.37L202.13-25.37 201.33-25.37Q201.18-25.37 201.18-25.46L201.18-25.46 201.18-26.27 202.08-34.62Q202.13-34.89 202.3-35.13 202.48-35.38 202.84-35.38L202.84-35.38Q203.01-35.38 203.17-35.28 203.33-35.18 203.48-35.05 203.62-34.91 203.76-34.79 203.89-34.67 204.04-34.62L204.04-34.62Q204.33-34.5 204.59-34.46 204.84-34.42 205.16-34.42L205.16-34.42 230.75-34.42Q231.06-34.42 231.32-34.46 231.58-34.5 231.87-34.62L231.87-34.62Q232.02-34.67 232.15-34.79 232.28-34.91 232.43-35.05 232.58-35.18 232.74-35.28 232.9-35.38 233.07-35.38L233.07-35.38Q233.43-35.38 233.6-35.13 233.77-34.89 233.82-34.62L233.82-34.62 234.73-26.27 234.73-25.46Q234.73-25.37 234.58-25.37L234.58-25.37 233.77-25.37Q233.65-25.37 233.6-25.44L233.6-25.44Q233.55-25.49 233.51-25.79 233.46-26.1 233.41-26.32L233.41-26.32Q233.24-27.08 233.09-27.89 232.94-28.71 232.65-29.42 232.36-30.13 231.85-30.65 231.33-31.18 230.43-31.37L230.43-31.37 222.13-31.37Q221.84-31.32 221.63-31.26 221.42-31.2 221.42-30.69L221.42-30.69 221.42-4.76Q221.42-4.03 221.79-3.45 222.15-2.88 222.78-2.44 223.4-2 224.24-1.73 225.08-1.46 226.03-1.37L226.03-1.37Q226.3-1.34 226.72-1.34 227.13-1.34 227.43-1.34L227.43-1.34Q227.55-1.34 227.59-1.27 227.62-1.2 227.62-1.15L227.62-1.15 227.62-0.2Q227.62-0.15 227.59-0.07 227.55 0 227.43 0L227.43 0 208.46 0Q208.33 0 208.3-0.07 208.26-0.15 208.26-0.2L208.26-0.2 208.26-1.15Q208.26-1.2 208.3-1.27 208.33-1.34 208.46-1.34L208.46-1.34Q208.73-1.34 209.15-1.34 209.58-1.34 209.85-1.37L209.85-1.37Q210.8-1.46 211.64-1.73 212.49-2 213.11-2.44 213.73-2.88 214.1-3.45 214.46-4.03 214.46-4.76L214.46-4.76 214.46-30.69ZM249.83-0.2L249.83-1.15Q249.83-1.34 250.03-1.34L250.03-1.34Q250.49-1.37 251.12-1.48 251.74-1.59 252.38-1.94 253.03-2.29 253.64-2.99 254.25-3.69 254.67-4.91L254.67-4.91 264.48-33.37Q264.48-33.35 264.49-33.4 264.51-33.45 264.51-33.5L264.51-33.5Q264.51-33.67 264.37-33.92 264.24-34.18 264.24-34.3L264.24-34.3Q264.24-34.42 264.34-34.42L264.34-34.42 271.42-34.42Q271.46-34.4 271.55-34.38 271.64-34.35 271.68-34.23L271.68-34.23 282.01-5.25Q282.26-4.57 282.48-4.08 282.69-3.59 283-3.21 283.31-2.83 283.77-2.53 284.23-2.22 284.97-1.9L284.97-1.9Q285.31-1.73 285.89-1.54 286.48-1.34 287.02-1.34L287.02-1.34Q287.14-1.34 287.17-1.27 287.21-1.2 287.21-1.12L287.21-1.12 287.21-0.2Q287.21-0.15 287.17-0.07 287.14 0 287.02 0L287.02 0 269.88 0Q269.76 0 269.72-0.07 269.68-0.15 269.68-0.2L269.68-0.2 269.68-1.15Q269.68-1.2 269.72-1.27 269.76-1.34 269.88-1.34L269.88-1.34Q269.98-1.34 270.07-1.35 270.17-1.37 270.22-1.37L270.22-1.37Q270.49-1.39 270.99-1.42 271.49-1.44 272.07-1.5 272.66-1.56 273.26-1.7 273.86-1.83 274.35-2.09 274.83-2.34 275.15-2.76 275.47-3.17 275.47-3.78L275.47-3.78Q275.47-3.93 275.42-4.13L275.42-4.13 272.22-12.94Q272.2-12.99 272.14-13.16 272.07-13.33 271.94-13.51 271.81-13.7 271.6-13.84 271.39-13.99 271.1-13.99L271.1-13.99 262.28-13.99Q261.97-13.99 261.75-13.84 261.53-13.7 261.38-13.53 261.23-13.35 261.15-13.18 261.06-13.01 261.06-12.99L261.06-12.99Q260.28-10.69 259.75-9.12 259.21-7.54 258.85-6.52 258.5-5.49 258.31-4.93 258.11-4.37 258.02-4.11 257.94-3.86 257.93-3.8 257.91-3.74 257.91-3.74L257.91-3.74Q257.91-3.66 257.94-3.58 257.96-3.49 257.99-3.42L257.99-3.42Q258.18-2.81 258.71-2.4 259.23-2 259.92-1.77 260.6-1.54 261.32-1.44 262.04-1.34 262.6-1.34L262.6-1.34 263.24-1.34Q263.36-1.34 263.4-1.27 263.43-1.2 263.43-1.15L263.43-1.15 263.43-0.2Q263.43-0.15 263.4-0.07 263.36 0 263.24 0L263.24 0 250.03 0Q249.83 0 249.83-0.2L249.83-0.2ZM265.7-26.39L262.63-17.5Q262.58-17.38 262.55-17.26 262.53-17.14 262.53-17.02L262.53-17.02Q262.53-16.87 262.6-16.78 262.68-16.7 262.9-16.7L262.9-16.7 270.22-16.7Q270.49-16.7 270.57-16.81 270.66-16.92 270.66-17.07L270.66-17.07Q270.66-17.19 270.63-17.29 270.61-17.38 270.56-17.5L270.56-17.5 267.31-26.42Q267.19-26.76 266.95-26.92 266.7-27.08 266.51-27.08L266.51-27.08Q266.31-27.08 266.07-26.89 265.82-26.71 265.7-26.39L265.7-26.39ZM292.48-30.15L292.48-30.15Q292.48-30.86 292.15-31.41 291.82-31.96 291.26-32.32 290.7-32.69 289.97-32.89 289.24-33.08 288.41-33.08L288.41-33.08Q288.21-33.08 288.21-33.28L288.21-33.28 288.21-34.23Q288.21-34.42 288.38-34.42L288.38-34.42 303.81-34.42Q303.93-34.42 303.97-34.35 304.01-34.28 304.01-34.23L304.01-34.23 304.01-33.28Q304.01-33.23 303.97-33.15 303.93-33.08 303.81-33.08L303.81-33.08Q303.08-33.08 302.31-32.98 301.54-32.89 300.89-32.54 300.25-32.2 299.84-31.56 299.44-30.91 299.44-29.81L299.44-29.81 299.44-12.7Q299.44-7.81 301.93-5.14 304.42-2.47 309.38-2.47L309.38-2.47Q311.43-2.47 313.31-3.04 315.19-3.61 316.63-4.81 318.07-6.01 318.92-7.86 319.78-9.72 319.78-12.28L319.78-12.28 319.78-27.44Q319.78-28.27 319.72-29.15 319.66-30.03 319.31-30.81 318.97-31.59 318.24-32.17 317.51-32.74 316.16-32.96L316.16-32.96Q315.55-33.06 315.15-33.07 314.75-33.08 314.63-33.08L314.63-33.08Q314.43-33.08 314.43-33.28L314.43-33.28 314.43-34.23Q314.43-34.42 314.63-34.42L314.63-34.42 327.37-34.42Q327.49-34.42 327.53-34.35 327.57-34.28 327.57-34.23L327.57-34.23 327.57-33.28Q327.57-33.23 327.52-33.15 327.47-33.08 327.37-33.08L327.37-33.08Q326.49-33.08 325.82-32.95 325.15-32.81 324.81-32.67L324.81-32.67Q324.39-32.5 324.05-32.14 323.71-31.79 323.48-31.38 323.24-30.98 323.12-30.55 323-30.13 323-29.81L323-29.81 323-14.18Q323-10.74 322.1-8 321.19-5.25 319.37-3.33 317.56-1.42 314.8-0.38 312.04 0.66 308.35 0.66L308.35 0.66Q306.59 0.66 304.73 0.39 302.86 0.12 301.09-0.46 299.32-1.05 297.76-1.98 296.19-2.91 295.02-4.2 293.85-5.49 293.17-7.18 292.48-8.86 292.48-10.99L292.48-10.99 292.48-30.15ZM342.99-30.69L342.99-30.69Q342.99-31.2 342.79-31.26 342.58-31.32 342.28-31.37L342.28-31.37 334.01-31.37Q333.1-31.18 332.59-30.65 332.08-30.13 331.79-29.42 331.49-28.71 331.35-27.89 331.2-27.08 331.03-26.32L331.03-26.32Q330.98-26.1 330.93-25.79 330.88-25.49 330.83-25.44L330.83-25.44Q330.79-25.37 330.66-25.37L330.66-25.37 329.86-25.37Q329.71-25.37 329.71-25.46L329.71-25.46 329.71-26.27 330.61-34.62Q330.66-34.89 330.83-35.13 331.01-35.38 331.37-35.38L331.37-35.38Q331.54-35.38 331.7-35.28 331.86-35.18 332.01-35.05 332.15-34.91 332.29-34.79 332.42-34.67 332.57-34.62L332.57-34.62Q332.86-34.5 333.12-34.46 333.37-34.42 333.69-34.42L333.69-34.42 359.28-34.42Q359.59-34.42 359.85-34.46 360.11-34.5 360.4-34.62L360.4-34.62Q360.55-34.67 360.68-34.79 360.81-34.91 360.96-35.05 361.11-35.18 361.27-35.28 361.43-35.38 361.6-35.38L361.6-35.38Q361.96-35.38 362.13-35.13 362.3-34.89 362.35-34.62L362.35-34.62 363.26-26.27 363.26-25.46Q363.26-25.37 363.11-25.37L363.11-25.37 362.3-25.37Q362.18-25.37 362.13-25.44L362.13-25.44Q362.08-25.49 362.04-25.79 361.99-26.1 361.94-26.32L361.94-26.32Q361.77-27.08 361.62-27.89 361.47-28.71 361.18-29.42 360.89-30.13 360.38-30.65 359.86-31.18 358.96-31.37L358.96-31.37 350.66-31.37Q350.37-31.32 350.16-31.26 349.95-31.2 349.95-30.69L349.95-30.69 349.95-4.76Q349.95-4.03 350.32-3.45 350.68-2.88 351.31-2.44 351.93-2 352.77-1.73 353.61-1.46 354.56-1.37L354.56-1.37Q354.83-1.34 355.25-1.34 355.66-1.34 355.96-1.34L355.96-1.34Q356.08-1.34 356.12-1.27 356.15-1.2 356.15-1.15L356.15-1.15 356.15-0.2Q356.15-0.15 356.12-0.07 356.08 0 355.96 0L355.96 0 336.99 0Q336.86 0 336.83-0.07 336.79-0.15 336.79-0.2L336.79-0.2 336.79-1.15Q336.79-1.2 336.83-1.27 336.86-1.34 336.99-1.34L336.99-1.34Q337.26-1.34 337.68-1.34 338.11-1.34 338.38-1.37L338.38-1.37Q339.33-1.46 340.17-1.73 341.02-2 341.64-2.44 342.26-2.88 342.63-3.45 342.99-4.03 342.99-4.76L342.99-4.76 342.99-30.69ZM384.32 0.63L384.32 0.63Q383.47 0.63 382.19 0.49 380.91 0.34 379.38-0.05 377.85-0.44 376.19-1.07 374.53-1.71 372.93-2.7 371.33-3.69 369.89-5.04 368.45-6.4 367.37-8.19 366.28-9.99 365.63-12.28 364.99-14.58 364.99-17.43L364.99-17.43Q364.99-19.97 365.68-22.29 366.38-24.61 367.67-26.61 368.97-28.61 370.81-30.25 372.65-31.88 374.92-33.03 377.19-34.18 379.86-34.81 382.52-35.45 385.45-35.45L385.45-35.45Q387.99-35.45 390.37-34.83 392.75-34.2 394.82-33.07 396.9-31.93 398.62-30.35 400.34-28.76 401.58-26.81 402.83-24.85 403.51-22.6 404.2-20.34 404.2-17.9L404.2-17.9Q404.2-15.6 403.54-13.34 402.88-11.08 401.63-9.02 400.39-6.96 398.62-5.2 396.85-3.44 394.65-2.14 392.45-0.83 389.84-0.1 387.23 0.63 384.32 0.63ZM372.16-18.33L372.16-18.33Q372.16-16.36 372.57-14.38 372.97-12.4 373.75-10.57 374.53-8.74 375.68-7.14 376.83-5.54 378.29-4.36 379.76-3.17 381.55-2.5 383.35-1.83 385.45-1.83L385.45-1.83Q388.4-1.83 390.57-3.09 392.75-4.35 394.17-6.42 395.6-8.5 396.3-11.19 396.99-13.89 396.99-16.77L396.99-16.77Q396.99-18.87 396.59-20.89 396.19-22.9 395.42-24.72 394.65-26.54 393.51-28.06 392.38-29.59 390.9-30.71 389.43-31.84 387.63-32.46 385.84-33.08 383.74-33.08L383.74-33.08Q381.86-33.08 380.27-32.5 378.68-31.91 377.4-30.9 376.12-29.88 375.14-28.48 374.17-27.08 373.51-25.44 372.85-23.8 372.51-21.98 372.16-20.17 372.16-18.33Z" opacity="1" transform="matrix(1,0,0,1,0,0)" fill="#113f67" class="wordmark-text-0" data-fill-palette-color="primary" id="text-0"></path></svg></g></svg></g></svg></g></svg></g><g transform="matrix(1,0,0,1,155.70836419600772,0)"><svg viewBox="0 0 86.08087160798445 69.2320200326936" height="69.2320200326936" width="86.08087160798445"><g><svg xmlns="http://www.w3.org/2000/svg" xmlns:xlink="http://www.w3.org/1999/xlink" version="1.1" x="0" y="0" viewBox="0 9.78600025177002 100.0003433227539 80.42699432373047" enable-background="new 0 0 100 100" xml:space="preserve" width="86.08087160798445" height="69.2320200326936" class="icon-icon-0" data-fill-palette-color="accent" id="icon-0"><path d="M49.942 52.994c13.552-0.488 27.103-0.977 40.653-1.465-2.527-4.177-3.159-7.831-7.989-8.461-7.229-0.94-14.458-1.883-21.688-2.826-14.023-1.827-28.05-3.654-42.075-5.48C20.101 36.792 39.724 53.361 49.942 52.994z" fill="#87c0cd" data-fill-palette-color="accent"></path><path d="M0 9.786c4.391 7.257 26.615 23.072 32.953 23.886 17.33 2.231 34.657 4.46 51.986 6.688-3.393-5.607-4.18-9.35-10.312-10.959-8.904-2.341-17.812-4.683-26.717-7.023C31.94 18.182 15.97 13.984 0 9.786z" fill="#87c0cd" data-fill-palette-color="accent"></path><path d="M63.108 66.207c10.413-2.219 20.826-4.439 31.241-6.66-2.028-3.346-2.034-5.359-5.827-5.189-6.158 0.273-12.314 0.549-18.471 0.822-11.343 0.506-22.686 1.014-34.028 1.518C37.298 58.064 54.94 67.947 63.108 66.207z" fill="#87c0cd" data-fill-palette-color="accent"></path><path d="M87.682 90.213c5.725-3.719 7.262-7.721 10.519-13.807 3.651-6.824 1.257-7.844-2.821-14.596-0.417-0.688-5.842 0.232-6.453 0.904-0.745 0.818-0.248 5.455-0.294 6.496C88.315 76.211 87.998 83.213 87.682 90.213z" fill="#87c0cd" data-fill-palette-color="accent"></path><path d="M86.35 63.447c-3.795 0.809-8.604 0.191-9.572 4.229-1.373 5.736-2.746 11.475-4.12 17.211C81.904 82.678 86.028 71.582 86.35 63.447z" fill="#87c0cd" data-fill-palette-color="accent"></path><path d="M74.666 66.121c-9.148 1.953-8.956 4.611-12.879 13.18C68.007 78.711 73.811 71.941 74.666 66.121z" fill="#87c0cd" data-fill-palette-color="accent"></path></svg></g></svg></g><g></g></svg></g><defs></defs></svg><rect width="395.52" height="157.1430457329543" fill="none" stroke="none" visibility="hidden"></rect></g></svg></g></svg>